<?xml version="1.0" encoding="UTF-8" standalone="no"?> <svg fill="currentColor" xmlns="http://www.w3.org/2000/svg" viewBox="0 0 32 32"><title>Meeting</title><g id="_11-20" data-name="11-20"><g id="Meeting"><path d="M23.754,23.423a3,3,0,1,0-3.508,0A3.99,3.99,0,0,0,18,27a2,2,0,0,0,2,2h4a2,2,0,0,0,2-2A3.99,3.99,0,0,0,23.754,23.423ZM22,20a1,1,0,1,1-1,1A1,1,0,0,1,22,20Zm-2,7a2,2,0,0,1,4,0Z"/><path d="M11.754,23.423a3,3,0,1,0-3.508,0A3.99,3.99,0,0,0,6,27a2,2,0,0,0,2,2h4a2,2,0,0,0,2-2A3.99,3.99,0,0,0,11.754,23.423ZM10,20a1,1,0,1,1-1,1A1,1,0,0,1,10,20ZM8,27H8a2,2,0,0,1,4,0Z"/><path d="M26,12.812V12a3.929,3.929,0,0,0-2.246-3.577,3,3,0,1,0-3.508,0A3.991,3.991,0,0,0,18,12H14a3.929,3.929,0,0,0-2.246-3.577,3,3,0,1,0-3.508,0A3.991,3.991,0,0,0,6,12v.808a6.117,6.117,0,0,0-1.251.949A5.984,5.984,0,0,0,4.2,21.585,1,1,0,1,0,5.8,20.376,3.956,3.956,0,0,1,5,18a3.984,3.984,0,0,1,4-4H23a4,4,0,0,1,4,4,3.931,3.931,0,0,1-.8,2.4A1,1,0,1,0,27.8,21.6,5.906,5.906,0,0,0,29,18,6,6,0,0,0,26,12.812ZM10,5A1,1,0,1,1,9,6,1,1,0,0,1,10,5ZM8,12.089V12a2,2,0,0,1,4,0H9A6.036,6.036,0,0,0,8,12.089ZM22,5a1,1,0,1,1-1,1A1,1,0,0,1,22,5Zm-2,7a2,2,0,0,1,4,0v.09A6,6,0,0,0,23,12Z"/><path d="M17,22H15a1,1,0,0,0,0,2h2a1,1,0,0,0,0-2Z"/></g></g></svg>
