<?xml version="1.0" encoding="iso-8859-1"?>
<!-- Uploaded to: SVG Repo, www.svgrepo.com, Generator: SVG Repo Mixer Tools -->
<svg fill="#000000" height="32" width="32" version="1.1" id="Layer_1" xmlns="http://www.w3.org/2000/svg" xmlns:xlink="http://www.w3.org/1999/xlink"
	 viewBox="0 0 700 600" xml:space="preserve">
<g>
	<g>
		<path d="M477.166,0H34.834C20.504,0,8.847,11.658,8.847,25.987v318.479c0,14.329,11.658,25.987,25.987,25.987h133.253v44.786
			c0,53.354,43.406,96.76,96.76,96.76c53.354,0,96.76-43.406,96.76-96.76v-44.786h115.559c14.329,0,25.987-11.658,25.987-25.987
			V25.987C503.153,11.658,491.496,0,477.166,0z M168.086,207.342v111.137H60.821V51.974H79.62v106.713
			c0,3.059,1.683,5.87,4.38,7.313c2.696,1.443,5.969,1.285,8.514-0.412l21.94-14.627l21.94,14.627
			c1.388,0.926,2.992,1.393,4.601,1.393c1.341,0,2.687-0.325,3.914-0.981c2.696-1.443,4.38-4.254,4.38-7.313V51.974H451.18v266.505
			H307.972c-4.762-4.789-10.99-8-17.901-8.691c-7.713-0.767-15.414,1.418-21.511,6.046c-4.857-8.15-13.14-13.932-22.723-14.892
			c-5.884-0.585-11.765,0.547-16.93,3.175v-95.513c0-16.14-11.993-29.982-27.303-31.516c-8.583-0.854-17.148,1.948-23.507,7.701
			C171.736,190.546,168.086,198.767,168.086,207.342z M96.207,143.19V51.974H132.7v91.216l-13.646-9.098
			c-2.787-1.858-6.415-1.858-9.201,0L96.207,143.19z M345.019,415.24c0,44.208-35.965,80.173-80.173,80.173
			c-44.208,0-80.173-35.965-80.173-80.173V207.343c0-3.898,1.659-7.636,4.553-10.254c2.572-2.327,5.82-3.569,9.268-3.569
			c0.482,0,0.968,0.024,1.456,0.073c6.936,0.693,12.369,7.287,12.369,15.011v122.592c0,4.58,3.713,8.294,8.294,8.294
			c4.58,0,8.294-3.713,8.294-8.294c0-3.898,1.659-7.636,4.553-10.254c2.932-2.653,6.738-3.897,10.724-3.496
			c6.936,0.693,12.369,7.287,12.369,15.011v7.586c0,4.58,3.713,8.294,8.294,8.294c4.58,0,8.294-3.713,8.294-8.294
			c0-3.898,1.659-7.636,4.553-10.254c2.932-2.652,6.738-3.896,10.724-3.496c6.936,0.693,12.369,7.287,12.369,15.011v7.586
			c0,4.58,3.713,8.294,8.294,8.294c4.58,0,8.294-3.713,8.294-8.294c0-3.898,1.659-7.636,4.553-10.254
			c2.564-2.32,5.797-3.562,9.237-3.568h0.002c0.491-0.001,0.986,0.023,1.485,0.073c6.936,0.693,12.369,7.287,12.369,15.011V415.24z
			 M486.566,344.466c0,5.183-4.216,9.4-9.4,9.4H361.607v-3.716c0-5.413-1.355-10.565-3.726-15.084h101.592
			c4.58,0,8.294-3.713,8.294-8.294V43.68c0-4.58-3.713-8.294-8.294-8.294H52.527c-4.58,0-8.294,3.713-8.294,8.294v283.093
			c0,4.58,3.713,8.294,8.294,8.294h115.559v18.799H34.834c-5.183,0-9.4-4.217-9.4-9.4V25.987c0-5.183,4.216-9.4,9.4-9.4h442.333
			c5.183,0,9.4,4.217,9.4,9.4V344.466z"/>
	</g>
</g>
<g>
	<g>
		<path d="M415.24,79.62H185.227c-4.58,0-8.294,3.713-8.294,8.294c0,4.58,3.713,8.294,8.294,8.294H415.24
			c4.58,0,8.294-3.713,8.294-8.294C423.533,83.333,419.82,79.62,415.24,79.62z"/>
	</g>
</g>
<g>
	<g>
		<path d="M415.24,185.78h-79.622c-4.58,0-8.294,3.713-8.294,8.294c0,4.58,3.713,8.294,8.294,8.294h79.622
			c4.58,0,8.294-3.713,8.294-8.294C423.533,189.493,419.82,185.78,415.24,185.78z"/>
	</g>
</g>
<g>
	<g>
		<path d="M300.232,185.78h-35.385c-4.58,0-8.294,3.713-8.294,8.294c0,4.58,3.713,8.294,8.294,8.294h35.385
			c4.58,0,8.294-3.713,8.294-8.294C308.526,189.493,304.813,185.78,300.232,185.78z"/>
	</g>
</g>
<g>
	<g>
		<path d="M388.7,221.166H264.847c-4.58,0-8.294,3.713-8.294,8.294c0,4.58,3.713,8.294,8.294,8.294H388.7
			c4.58,0,8.294-3.713,8.294-8.294C396.994,224.88,393.28,221.166,388.7,221.166z"/>
	</g>
</g>
<g>
	<g>
		<path d="M388.7,256.553h-17.695c-4.58,0-8.294,3.713-8.294,8.294c0,4.58,3.713,8.294,8.294,8.294H388.7
			c4.58,0,8.294-3.713,8.294-8.294C396.994,260.266,393.28,256.553,388.7,256.553z"/>
	</g>
</g>
<g>
	<g>
		<path d="M335.619,256.553h-70.772c-4.58,0-8.294,3.713-8.294,8.294c0,4.58,3.713,8.294,8.294,8.294h70.772
			c4.58,0,8.294-3.713,8.294-8.294C343.913,260.266,340.199,256.553,335.619,256.553z"/>
	</g>
</g>
<g>
	<g>
		<path d="M300.233,115.006H185.227c-4.58,0-8.294,3.713-8.294,8.294c0,4.58,3.713,8.294,8.294,8.294h115.006
			c4.58,0,8.294-3.713,8.294-8.294C308.527,118.72,304.814,115.006,300.233,115.006z"/>
	</g>
</g>
</svg>
