<svg width="28" height="19" viewBox="0 0 28 19" fill="none" xmlns="http://www.w3.org/2000/svg">
    <path d="M8.17242 18.3346C7.93277 18.3341 7.69601 18.2823 7.47805 18.1827C7.1851 18.0522 6.93656 17.8392 6.76285 17.5696C6.58914 17.3001 6.49781 16.9857 6.50004 16.665V2.5C6.50077 1.83718 6.76439 1.20172 7.23308 0.733031C7.70176 0.264348 8.33723 0.000722656 9.00004 0H19C19.6629 0.000722656 20.2983 0.264348 20.767 0.733031C21.2357 1.20172 21.4993 1.83718 21.5 2.5V16.665C21.5 16.9852 21.4078 17.2986 21.2344 17.5678C21.061 17.8369 20.8137 18.0504 20.5221 18.1827C20.2306 18.3151 19.9071 18.3606 19.5904 18.3139C19.2736 18.2673 18.977 18.1304 18.736 17.9195L14 13.7757L9.2641 17.9195C8.96289 18.1862 8.57473 18.3338 8.17242 18.3346ZM14 12.1104C14.4037 12.1097 14.7938 12.2558 15.0977 12.5214L19.8334 16.665L19.8389 16.6693L19.8334 2.5C19.8332 2.27906 19.7453 2.06722 19.5891 1.91099C19.4328 1.75476 19.221 1.6669 19 1.66668H9.00004C8.7791 1.6669 8.56727 1.75476 8.41102 1.91099C8.25481 2.06722 8.16695 2.27906 8.16672 2.5V16.665L12.9027 12.5212C13.2064 12.2556 13.5965 12.1096 14 12.1104Z" fill="black"/>
    <line x1="0.745099" y1="16.7365" x2="27.7451" y2="0.736541" stroke="black"/>
</svg>
