<svg width="40" height="30" viewBox="0 0 40 30" fill="none" xmlns="http://www.w3.org/2000/svg">
    <ellipse cx="18.3301" cy="18.3313" rx="11.666" ry="11.6663" fill="#0029FF" fill-opacity="0.5"/>
    <ellipse cx="13.3354" cy="13.3336" rx="9.99947" ry="9.99965" fill="#7D0092" fill-opacity="0.6"/>
    <ellipse cx="5.00252" cy="24.9996" rx="1.66658" ry="1.66661" fill="#FF9900" fill-opacity="0.5"/>
    <ellipse cx="0.833289" cy="17.4993" rx="0.833289" ry="0.833304" fill="#7D0092" fill-opacity="0.5"/>
    <path d="M31.6666 14.1673C31.6666 14.6275 31.2935 15.0006 30.8333 15.0006C30.3731 15.0006 30 14.6275 30 14.1673C30 13.7071 30.3731 13.334 30.8333 13.334C31.2935 13.334 31.6666 13.7071 31.6666 14.1673Z" fill="#FF000F" fill-opacity="0.5"/>
    <ellipse cx="36.6662" cy="6.6672" rx="3.33316" ry="3.33322" fill="#0029FF" fill-opacity="0.5"/>
    <ellipse cx="11.6666" cy="1.66661" rx="1.66658" ry="1.66661" fill="#FF000F" fill-opacity="0.5"/>
    <path d="M33.3298 21.667C33.3298 26.2692 29.5991 30.0001 24.997 30.0001C20.3948 30.0001 16.6641 26.2692 16.6641 21.667C16.6641 17.0648 20.3948 13.334 24.997 13.334C29.5991 13.334 33.3298 17.0648 33.3298 21.667Z" fill="#FF000F" fill-opacity="0.5"/>
    <ellipse cx="21.6659" cy="8.33304" rx="8.33289" ry="8.33304" fill="#FF9900" fill-opacity="0.6"/>
</svg>
